<mxfile host="app.diagrams.net" modified="2021-06-20T08:27:35.490Z" agent="5.0 (Windows NT 10.0; Win64; x64) AppleWebKit/537.36 (KHTML, like Gecko) Chrome/91.0.4472.106 Safari/537.36" etag="XgcxH_OIHQ_D0sSHwHdc" version="14.8.0" type="github">
  <diagram id="EPdFTwsxXow6yKQpClQg" name="Page-1">
    <mxGraphModel dx="1447" dy="767" grid="1" gridSize="10" guides="1" tooltips="1" connect="1" arrows="1" fold="1" page="1" pageScale="1" pageWidth="827" pageHeight="1169" math="0" shadow="0">
      <root>
        <mxCell id="0" />
        <mxCell id="1" parent="0" />
        <mxCell id="B3mxXPaatogXchF34-ks-50" style="edgeStyle=orthogonalEdgeStyle;rounded=0;orthogonalLoop=1;jettySize=auto;html=1;entryX=0.5;entryY=0;entryDx=0;entryDy=0;fontFamily=Verdana;fontSize=14;" edge="1" parent="1" target="B3mxXPaatogXchF34-ks-20">
          <mxGeometry relative="1" as="geometry">
            <mxPoint x="290" y="530" as="sourcePoint" />
            <Array as="points">
              <mxPoint x="290" y="540" />
              <mxPoint x="110" y="540" />
            </Array>
          </mxGeometry>
        </mxCell>
        <mxCell id="B3mxXPaatogXchF34-ks-51" style="edgeStyle=orthogonalEdgeStyle;rounded=0;orthogonalLoop=1;jettySize=auto;html=1;entryX=0.5;entryY=0;entryDx=0;entryDy=0;fontFamily=Verdana;fontSize=14;exitX=0.5;exitY=1;exitDx=0;exitDy=0;" edge="1" parent="1" source="B3mxXPaatogXchF34-ks-17" target="B3mxXPaatogXchF34-ks-21">
          <mxGeometry relative="1" as="geometry">
            <mxPoint x="290" y="530" as="sourcePoint" />
            <Array as="points">
              <mxPoint x="290" y="540" />
              <mxPoint x="170" y="540" />
            </Array>
          </mxGeometry>
        </mxCell>
        <mxCell id="B3mxXPaatogXchF34-ks-52" style="edgeStyle=orthogonalEdgeStyle;rounded=0;orthogonalLoop=1;jettySize=auto;html=1;entryX=0.5;entryY=0;entryDx=0;entryDy=0;fontFamily=Verdana;fontSize=14;exitX=0.5;exitY=1;exitDx=0;exitDy=0;" edge="1" parent="1" source="B3mxXPaatogXchF34-ks-17" target="B3mxXPaatogXchF34-ks-22">
          <mxGeometry relative="1" as="geometry">
            <mxPoint x="290" y="530" as="sourcePoint" />
            <Array as="points">
              <mxPoint x="290" y="540" />
              <mxPoint x="230" y="540" />
            </Array>
          </mxGeometry>
        </mxCell>
        <mxCell id="B3mxXPaatogXchF34-ks-53" style="edgeStyle=orthogonalEdgeStyle;rounded=0;orthogonalLoop=1;jettySize=auto;html=1;entryX=0.5;entryY=0;entryDx=0;entryDy=0;fontFamily=Verdana;fontSize=14;exitX=0.5;exitY=1;exitDx=0;exitDy=0;" edge="1" parent="1" source="B3mxXPaatogXchF34-ks-17" target="B3mxXPaatogXchF34-ks-23">
          <mxGeometry relative="1" as="geometry">
            <mxPoint x="290" y="530" as="sourcePoint" />
          </mxGeometry>
        </mxCell>
        <mxCell id="B3mxXPaatogXchF34-ks-54" style="edgeStyle=orthogonalEdgeStyle;rounded=0;orthogonalLoop=1;jettySize=auto;html=1;entryX=0.5;entryY=0;entryDx=0;entryDy=0;fontFamily=Verdana;fontSize=14;exitX=0.508;exitY=1.056;exitDx=0;exitDy=0;exitPerimeter=0;" edge="1" parent="1" source="B3mxXPaatogXchF34-ks-17" target="B3mxXPaatogXchF34-ks-24">
          <mxGeometry relative="1" as="geometry">
            <mxPoint x="290" y="530" as="sourcePoint" />
            <Array as="points">
              <mxPoint x="290" y="540" />
              <mxPoint x="350" y="540" />
            </Array>
          </mxGeometry>
        </mxCell>
        <mxCell id="B3mxXPaatogXchF34-ks-55" style="edgeStyle=orthogonalEdgeStyle;rounded=0;orthogonalLoop=1;jettySize=auto;html=1;entryX=0.5;entryY=0;entryDx=0;entryDy=0;fontFamily=Verdana;fontSize=14;exitX=0.5;exitY=1;exitDx=0;exitDy=0;" edge="1" parent="1" source="B3mxXPaatogXchF34-ks-17" target="B3mxXPaatogXchF34-ks-34">
          <mxGeometry relative="1" as="geometry">
            <mxPoint x="290" y="530" as="sourcePoint" />
            <Array as="points">
              <mxPoint x="290" y="540" />
              <mxPoint x="420" y="540" />
            </Array>
          </mxGeometry>
        </mxCell>
        <mxCell id="B3mxXPaatogXchF34-ks-56" style="edgeStyle=orthogonalEdgeStyle;rounded=0;orthogonalLoop=1;jettySize=auto;html=1;entryX=0.5;entryY=0;entryDx=0;entryDy=0;fontFamily=Verdana;fontSize=14;exitX=0.5;exitY=1;exitDx=0;exitDy=0;" edge="1" parent="1" source="B3mxXPaatogXchF34-ks-17" target="B3mxXPaatogXchF34-ks-25">
          <mxGeometry relative="1" as="geometry">
            <mxPoint x="290" y="530" as="sourcePoint" />
            <Array as="points">
              <mxPoint x="290" y="540" />
              <mxPoint x="490" y="540" />
            </Array>
          </mxGeometry>
        </mxCell>
        <mxCell id="B3mxXPaatogXchF34-ks-17" value="办&lt;br&gt;公&lt;br&gt;室" style="rounded=0;whiteSpace=wrap;html=1;shadow=0;labelBackgroundColor=none;fontFamily=Verdana;fontSize=14;align=center;verticalAlign=middle;" vertex="1" parent="1">
          <mxGeometry x="270" y="430" width="40" height="60" as="geometry" />
        </mxCell>
        <mxCell id="B3mxXPaatogXchF34-ks-3" value="" style="edgeStyle=orthogonalEdgeStyle;rounded=0;orthogonalLoop=1;jettySize=auto;html=1;" edge="1" parent="1" source="B3mxXPaatogXchF34-ks-1" target="B3mxXPaatogXchF34-ks-2">
          <mxGeometry relative="1" as="geometry" />
        </mxCell>
        <mxCell id="B3mxXPaatogXchF34-ks-95" style="edgeStyle=orthogonalEdgeStyle;rounded=0;orthogonalLoop=1;jettySize=auto;html=1;entryX=0.5;entryY=0;entryDx=0;entryDy=0;fontFamily=Verdana;fontSize=14;" edge="1" parent="1" source="B3mxXPaatogXchF34-ks-1" target="B3mxXPaatogXchF34-ks-88">
          <mxGeometry relative="1" as="geometry" />
        </mxCell>
        <mxCell id="B3mxXPaatogXchF34-ks-97" style="edgeStyle=orthogonalEdgeStyle;rounded=0;orthogonalLoop=1;jettySize=auto;html=1;entryX=0.5;entryY=0;entryDx=0;entryDy=0;fontFamily=Verdana;fontSize=14;strokeWidth=1;" edge="1" parent="1" source="B3mxXPaatogXchF34-ks-1" target="B3mxXPaatogXchF34-ks-96">
          <mxGeometry relative="1" as="geometry" />
        </mxCell>
        <mxCell id="B3mxXPaatogXchF34-ks-1" value="园长" style="rounded=0;whiteSpace=wrap;html=1;" vertex="1" parent="1">
          <mxGeometry x="716" y="150" width="120" height="60" as="geometry" />
        </mxCell>
        <mxCell id="B3mxXPaatogXchF34-ks-2" value="全园工作" style="rounded=0;whiteSpace=wrap;html=1;" vertex="1" parent="1">
          <mxGeometry x="1030" y="150" width="120" height="60" as="geometry" />
        </mxCell>
        <mxCell id="B3mxXPaatogXchF34-ks-67" style="edgeStyle=orthogonalEdgeStyle;rounded=0;orthogonalLoop=1;jettySize=auto;html=1;entryX=0.5;entryY=0;entryDx=0;entryDy=0;fontFamily=Verdana;fontSize=14;" edge="1" parent="1" source="B3mxXPaatogXchF34-ks-7" target="B3mxXPaatogXchF34-ks-37">
          <mxGeometry relative="1" as="geometry">
            <Array as="points">
              <mxPoint x="980" y="530" />
              <mxPoint x="890" y="530" />
            </Array>
          </mxGeometry>
        </mxCell>
        <mxCell id="B3mxXPaatogXchF34-ks-68" style="edgeStyle=orthogonalEdgeStyle;rounded=0;orthogonalLoop=1;jettySize=auto;html=1;entryX=0.5;entryY=0;entryDx=0;entryDy=0;fontFamily=Verdana;fontSize=14;" edge="1" parent="1" source="B3mxXPaatogXchF34-ks-7" target="B3mxXPaatogXchF34-ks-39">
          <mxGeometry relative="1" as="geometry" />
        </mxCell>
        <mxCell id="B3mxXPaatogXchF34-ks-69" style="edgeStyle=orthogonalEdgeStyle;rounded=0;orthogonalLoop=1;jettySize=auto;html=1;entryX=0.5;entryY=0;entryDx=0;entryDy=0;fontFamily=Verdana;fontSize=14;" edge="1" parent="1" source="B3mxXPaatogXchF34-ks-7" target="B3mxXPaatogXchF34-ks-40">
          <mxGeometry relative="1" as="geometry" />
        </mxCell>
        <mxCell id="B3mxXPaatogXchF34-ks-70" style="edgeStyle=orthogonalEdgeStyle;rounded=0;orthogonalLoop=1;jettySize=auto;html=1;entryX=0.5;entryY=0;entryDx=0;entryDy=0;fontFamily=Verdana;fontSize=14;" edge="1" parent="1" source="B3mxXPaatogXchF34-ks-7" target="B3mxXPaatogXchF34-ks-41">
          <mxGeometry relative="1" as="geometry">
            <Array as="points">
              <mxPoint x="980" y="530" />
              <mxPoint x="1070" y="530" />
            </Array>
          </mxGeometry>
        </mxCell>
        <mxCell id="B3mxXPaatogXchF34-ks-7" value="综&lt;br&gt;治&lt;br&gt;办" style="rounded=0;whiteSpace=wrap;html=1;" vertex="1" parent="1">
          <mxGeometry x="960" y="430" width="40" height="60" as="geometry" />
        </mxCell>
        <mxCell id="B3mxXPaatogXchF34-ks-62" style="edgeStyle=orthogonalEdgeStyle;rounded=0;orthogonalLoop=1;jettySize=auto;html=1;entryX=0.5;entryY=0;entryDx=0;entryDy=0;fontFamily=Verdana;fontSize=14;" edge="1" parent="1" source="B3mxXPaatogXchF34-ks-8" target="B3mxXPaatogXchF34-ks-28">
          <mxGeometry relative="1" as="geometry">
            <Array as="points">
              <mxPoint x="696" y="540" />
              <mxPoint x="579" y="540" />
            </Array>
          </mxGeometry>
        </mxCell>
        <mxCell id="B3mxXPaatogXchF34-ks-63" style="edgeStyle=orthogonalEdgeStyle;rounded=0;orthogonalLoop=1;jettySize=auto;html=1;entryX=0.5;entryY=0;entryDx=0;entryDy=0;fontFamily=Verdana;fontSize=14;" edge="1" parent="1" source="B3mxXPaatogXchF34-ks-8" target="B3mxXPaatogXchF34-ks-26">
          <mxGeometry relative="1" as="geometry">
            <Array as="points">
              <mxPoint x="696" y="540" />
              <mxPoint x="640" y="540" />
            </Array>
          </mxGeometry>
        </mxCell>
        <mxCell id="B3mxXPaatogXchF34-ks-64" style="edgeStyle=orthogonalEdgeStyle;rounded=0;orthogonalLoop=1;jettySize=auto;html=1;entryX=0.5;entryY=0;entryDx=0;entryDy=0;fontFamily=Verdana;fontSize=14;" edge="1" parent="1" source="B3mxXPaatogXchF34-ks-8" target="B3mxXPaatogXchF34-ks-29">
          <mxGeometry relative="1" as="geometry" />
        </mxCell>
        <mxCell id="B3mxXPaatogXchF34-ks-65" style="edgeStyle=orthogonalEdgeStyle;rounded=0;orthogonalLoop=1;jettySize=auto;html=1;entryX=0.5;entryY=0;entryDx=0;entryDy=0;fontFamily=Verdana;fontSize=14;" edge="1" parent="1" source="B3mxXPaatogXchF34-ks-8" target="B3mxXPaatogXchF34-ks-36">
          <mxGeometry relative="1" as="geometry">
            <Array as="points">
              <mxPoint x="696" y="540" />
              <mxPoint x="752" y="540" />
            </Array>
          </mxGeometry>
        </mxCell>
        <mxCell id="B3mxXPaatogXchF34-ks-66" style="edgeStyle=orthogonalEdgeStyle;rounded=0;orthogonalLoop=1;jettySize=auto;html=1;entryX=0.5;entryY=0;entryDx=0;entryDy=0;fontFamily=Verdana;fontSize=14;" edge="1" parent="1" source="B3mxXPaatogXchF34-ks-8" target="B3mxXPaatogXchF34-ks-27">
          <mxGeometry relative="1" as="geometry">
            <Array as="points">
              <mxPoint x="696" y="540" />
              <mxPoint x="810" y="540" />
            </Array>
          </mxGeometry>
        </mxCell>
        <mxCell id="B3mxXPaatogXchF34-ks-8" value="保&lt;br&gt;教&lt;br&gt;处" style="rounded=0;whiteSpace=wrap;html=1;" vertex="1" parent="1">
          <mxGeometry x="676" y="430" width="40" height="60" as="geometry" />
        </mxCell>
        <mxCell id="B3mxXPaatogXchF34-ks-71" style="edgeStyle=orthogonalEdgeStyle;rounded=0;orthogonalLoop=1;jettySize=auto;html=1;entryX=0.5;entryY=0;entryDx=0;entryDy=0;fontFamily=Verdana;fontSize=14;" edge="1" parent="1" source="B3mxXPaatogXchF34-ks-18" target="B3mxXPaatogXchF34-ks-48">
          <mxGeometry relative="1" as="geometry">
            <Array as="points">
              <mxPoint x="1240" y="530" />
              <mxPoint x="1150" y="530" />
            </Array>
          </mxGeometry>
        </mxCell>
        <mxCell id="B3mxXPaatogXchF34-ks-72" style="edgeStyle=orthogonalEdgeStyle;rounded=0;orthogonalLoop=1;jettySize=auto;html=1;entryX=0.5;entryY=0;entryDx=0;entryDy=0;fontFamily=Verdana;fontSize=14;" edge="1" parent="1" source="B3mxXPaatogXchF34-ks-18" target="B3mxXPaatogXchF34-ks-47">
          <mxGeometry relative="1" as="geometry" />
        </mxCell>
        <mxCell id="B3mxXPaatogXchF34-ks-73" style="edgeStyle=orthogonalEdgeStyle;rounded=0;orthogonalLoop=1;jettySize=auto;html=1;entryX=0.5;entryY=0;entryDx=0;entryDy=0;fontFamily=Verdana;fontSize=14;" edge="1" parent="1" source="B3mxXPaatogXchF34-ks-18" target="B3mxXPaatogXchF34-ks-46">
          <mxGeometry relative="1" as="geometry" />
        </mxCell>
        <mxCell id="B3mxXPaatogXchF34-ks-74" style="edgeStyle=orthogonalEdgeStyle;rounded=0;orthogonalLoop=1;jettySize=auto;html=1;entryX=0.5;entryY=0;entryDx=0;entryDy=0;fontFamily=Verdana;fontSize=14;" edge="1" parent="1" source="B3mxXPaatogXchF34-ks-18" target="B3mxXPaatogXchF34-ks-45">
          <mxGeometry relative="1" as="geometry">
            <Array as="points">
              <mxPoint x="1240" y="530" />
              <mxPoint x="1330" y="530" />
            </Array>
          </mxGeometry>
        </mxCell>
        <mxCell id="B3mxXPaatogXchF34-ks-18" value="总&lt;br&gt;务&lt;br&gt;处" style="rounded=0;whiteSpace=wrap;html=1;" vertex="1" parent="1">
          <mxGeometry x="1220" y="430" width="40" height="60" as="geometry" />
        </mxCell>
        <mxCell id="B3mxXPaatogXchF34-ks-75" style="edgeStyle=orthogonalEdgeStyle;rounded=0;orthogonalLoop=1;jettySize=auto;html=1;entryX=0.5;entryY=0;entryDx=0;entryDy=0;fontFamily=Verdana;fontSize=14;" edge="1" parent="1" source="B3mxXPaatogXchF34-ks-19" target="B3mxXPaatogXchF34-ks-44">
          <mxGeometry relative="1" as="geometry">
            <Array as="points">
              <mxPoint x="1493" y="530" />
              <mxPoint x="1403" y="530" />
            </Array>
          </mxGeometry>
        </mxCell>
        <mxCell id="B3mxXPaatogXchF34-ks-76" style="edgeStyle=orthogonalEdgeStyle;rounded=0;orthogonalLoop=1;jettySize=auto;html=1;entryX=0.5;entryY=0;entryDx=0;entryDy=0;fontFamily=Verdana;fontSize=14;" edge="1" parent="1" source="B3mxXPaatogXchF34-ks-19" target="B3mxXPaatogXchF34-ks-43">
          <mxGeometry relative="1" as="geometry" />
        </mxCell>
        <mxCell id="B3mxXPaatogXchF34-ks-77" style="edgeStyle=orthogonalEdgeStyle;rounded=0;orthogonalLoop=1;jettySize=auto;html=1;entryX=0.5;entryY=0;entryDx=0;entryDy=0;fontFamily=Verdana;fontSize=14;" edge="1" parent="1" source="B3mxXPaatogXchF34-ks-19" target="B3mxXPaatogXchF34-ks-42">
          <mxGeometry relative="1" as="geometry" />
        </mxCell>
        <mxCell id="B3mxXPaatogXchF34-ks-78" style="edgeStyle=orthogonalEdgeStyle;rounded=0;orthogonalLoop=1;jettySize=auto;html=1;entryX=0.5;entryY=0;entryDx=0;entryDy=0;fontFamily=Verdana;fontSize=14;" edge="1" parent="1" source="B3mxXPaatogXchF34-ks-19" target="B3mxXPaatogXchF34-ks-38">
          <mxGeometry relative="1" as="geometry">
            <Array as="points">
              <mxPoint x="1493" y="530" />
              <mxPoint x="1583" y="530" />
            </Array>
          </mxGeometry>
        </mxCell>
        <mxCell id="B3mxXPaatogXchF34-ks-19" value="电&lt;br&gt;教&lt;br&gt;处" style="rounded=0;whiteSpace=wrap;html=1;" vertex="1" parent="1">
          <mxGeometry x="1473" y="430" width="40" height="60" as="geometry" />
        </mxCell>
        <mxCell id="B3mxXPaatogXchF34-ks-20" value="上&lt;br&gt;级&lt;br&gt;文&lt;br&gt;件&lt;br&gt;收&lt;br&gt;发&lt;br&gt;工&lt;br&gt;作" style="rounded=0;whiteSpace=wrap;html=1;shadow=0;labelBackgroundColor=none;fontFamily=Verdana;fontSize=14;align=center;verticalAlign=middle;" vertex="1" parent="1">
          <mxGeometry x="90" y="570" width="40" height="160" as="geometry" />
        </mxCell>
        <mxCell id="B3mxXPaatogXchF34-ks-21" value="教&lt;br&gt;职&lt;br&gt;工&lt;br&gt;考&lt;br&gt;情&lt;br&gt;打&lt;br&gt;卡&lt;br&gt;工&lt;br&gt;作" style="rounded=0;whiteSpace=wrap;html=1;shadow=0;labelBackgroundColor=none;fontFamily=Verdana;fontSize=14;align=center;verticalAlign=middle;" vertex="1" parent="1">
          <mxGeometry x="150" y="570" width="40" height="160" as="geometry" />
        </mxCell>
        <mxCell id="B3mxXPaatogXchF34-ks-22" value="教&lt;br&gt;育&lt;br&gt;扶&lt;br&gt;贫&lt;br&gt;工&lt;br&gt;作" style="rounded=0;whiteSpace=wrap;html=1;shadow=0;labelBackgroundColor=none;fontFamily=Verdana;fontSize=14;align=center;verticalAlign=middle;" vertex="1" parent="1">
          <mxGeometry x="210" y="570" width="40" height="160" as="geometry" />
        </mxCell>
        <mxCell id="B3mxXPaatogXchF34-ks-23" value="保&lt;br&gt;育&lt;br&gt;教&lt;br&gt;师&lt;br&gt;管&lt;br&gt;理&lt;br&gt;工&lt;br&gt;作" style="rounded=0;whiteSpace=wrap;html=1;shadow=0;labelBackgroundColor=none;fontFamily=Verdana;fontSize=14;align=center;verticalAlign=middle;" vertex="1" parent="1">
          <mxGeometry x="270" y="570" width="40" height="160" as="geometry" />
        </mxCell>
        <mxCell id="B3mxXPaatogXchF34-ks-24" value="公&lt;br&gt;众&lt;br&gt;号&lt;br&gt;报&lt;br&gt;道&lt;br&gt;工&lt;br&gt;作" style="rounded=0;whiteSpace=wrap;html=1;shadow=0;labelBackgroundColor=none;fontFamily=Verdana;fontSize=14;align=center;verticalAlign=middle;" vertex="1" parent="1">
          <mxGeometry x="330" y="570" width="40" height="160" as="geometry" />
        </mxCell>
        <mxCell id="B3mxXPaatogXchF34-ks-25" value="上&lt;br&gt;报&lt;br&gt;各&lt;br&gt;类&lt;br&gt;表&lt;br&gt;格&lt;br&gt;工&lt;br&gt;作" style="rounded=0;whiteSpace=wrap;html=1;shadow=0;labelBackgroundColor=none;fontFamily=Verdana;fontSize=14;align=center;verticalAlign=middle;" vertex="1" parent="1">
          <mxGeometry x="470" y="570" width="40" height="160" as="geometry" />
        </mxCell>
        <mxCell id="B3mxXPaatogXchF34-ks-26" value="报&lt;br&gt;名&lt;br&gt;编&lt;br&gt;班&lt;br&gt;工&lt;br&gt;作" style="rounded=0;whiteSpace=wrap;html=1;shadow=0;labelBackgroundColor=none;fontFamily=Verdana;fontSize=14;align=center;verticalAlign=middle;" vertex="1" parent="1">
          <mxGeometry x="620" y="570" width="40" height="160" as="geometry" />
        </mxCell>
        <mxCell id="B3mxXPaatogXchF34-ks-27" value="教&lt;br&gt;师&lt;br&gt;培&lt;br&gt;训&lt;br&gt;工&lt;br&gt;&lt;span style=&quot;color: rgba(0 , 0 , 0 , 0) ; font-family: monospace ; font-size: 0px&quot;&gt;%3CmxGraphModel%3E%3Croot%3E%3CmxCell%20id%3D%220%22%2F%3E%3CmxCell%20id%3D%221%22%20parent%3D%220%22%2F%3E%3CmxCell%20id%3D%222%22%20value%3D%22%E6%95%99%26lt%3Bbr%26gt%3B%E8%81%8C%26lt%3Bbr%26gt%3B%E5%B7%A5%26lt%3Bbr%26gt%3B%E8%80%83%26lt%3Bbr%26gt%3B%E6%83%85%26lt%3Bbr%26gt%3B%E6%89%93%26lt%3Bbr%26gt%3B%E5%8D%A1%26lt%3Bbr%26gt%3B%E5%B7%A5%26lt%3Bbr%26gt%3B%E4%BD%9C%22%20style%3D%22rounded%3D0%3BwhiteSpace%3Dwrap%3Bhtml%3D1%3Bshadow%3D0%3BlabelBackgroundColor%3Dnone%3BfontFamily%3DVerdana%3BfontSize%3D14%3Balign%3Dcenter%3BverticalAlign%3Dmiddle%3B%22%20vertex%3D%221%22%20parent%3D%221%22%3E%3CmxGeometry%20x%3D%22520%22%20y%3D%22420%22%20width%3D%2240%22%20height%3D%22160%22%20as%3D%22geometry%22%2F%3E%3C%2FmxCell%3E%3C%2Froot%3E%3C%2FmxGraphModel%3E&lt;/span&gt;作" style="rounded=0;whiteSpace=wrap;html=1;shadow=0;labelBackgroundColor=none;fontFamily=Verdana;fontSize=14;align=center;verticalAlign=middle;" vertex="1" parent="1">
          <mxGeometry x="790" y="570" width="40" height="160" as="geometry" />
        </mxCell>
        <mxCell id="B3mxXPaatogXchF34-ks-28" value="日&lt;br&gt;常&lt;br&gt;教&lt;br&gt;学&lt;br&gt;工&lt;br&gt;作" style="rounded=0;whiteSpace=wrap;html=1;shadow=0;labelBackgroundColor=none;fontFamily=Verdana;fontSize=14;align=center;verticalAlign=middle;" vertex="1" parent="1">
          <mxGeometry x="559" y="570" width="40" height="160" as="geometry" />
        </mxCell>
        <mxCell id="B3mxXPaatogXchF34-ks-29" value="宣&lt;br&gt;传&lt;br&gt;栏&lt;br&gt;工&lt;br&gt;作" style="rounded=0;whiteSpace=wrap;html=1;shadow=0;labelBackgroundColor=none;fontFamily=Verdana;fontSize=14;align=center;verticalAlign=middle;" vertex="1" parent="1">
          <mxGeometry x="676" y="570" width="40" height="160" as="geometry" />
        </mxCell>
        <mxCell id="B3mxXPaatogXchF34-ks-34" value="上&lt;br&gt;传&lt;br&gt;下&lt;br&gt;达&lt;br&gt;工&lt;br&gt;作" style="rounded=0;whiteSpace=wrap;html=1;shadow=0;labelBackgroundColor=none;fontFamily=Verdana;fontSize=14;align=center;verticalAlign=middle;" vertex="1" parent="1">
          <mxGeometry x="400" y="570" width="40" height="160" as="geometry" />
        </mxCell>
        <mxCell id="B3mxXPaatogXchF34-ks-36" value="园&lt;br&gt;本&lt;br&gt;教&lt;br&gt;研&lt;br&gt;工&lt;br&gt;作" style="rounded=0;whiteSpace=wrap;html=1;shadow=0;labelBackgroundColor=none;fontFamily=Verdana;fontSize=14;align=center;verticalAlign=middle;" vertex="1" parent="1">
          <mxGeometry x="732" y="570" width="40" height="160" as="geometry" />
        </mxCell>
        <mxCell id="B3mxXPaatogXchF34-ks-37" value="安&lt;br&gt;全&lt;br&gt;教&lt;br&gt;育&lt;br&gt;计&lt;br&gt;划&lt;br&gt;工&lt;br&gt;作" style="rounded=0;whiteSpace=wrap;html=1;shadow=0;labelBackgroundColor=none;fontFamily=Verdana;fontSize=14;align=center;verticalAlign=middle;" vertex="1" parent="1">
          <mxGeometry x="870" y="570" width="40" height="160" as="geometry" />
        </mxCell>
        <mxCell id="B3mxXPaatogXchF34-ks-38" value="一&lt;br&gt;体&lt;br&gt;机&lt;br&gt;的&lt;br&gt;管&lt;br&gt;理&lt;br&gt;工&lt;br&gt;作" style="rounded=0;whiteSpace=wrap;html=1;shadow=0;labelBackgroundColor=none;fontFamily=Verdana;fontSize=14;align=center;verticalAlign=middle;" vertex="1" parent="1">
          <mxGeometry x="1563" y="570" width="40" height="160" as="geometry" />
        </mxCell>
        <mxCell id="B3mxXPaatogXchF34-ks-39" value="安&lt;br&gt;全&lt;br&gt;排&lt;br&gt;查&lt;br&gt;工&lt;br&gt;作" style="rounded=0;whiteSpace=wrap;html=1;shadow=0;labelBackgroundColor=none;fontFamily=Verdana;fontSize=14;align=center;verticalAlign=middle;" vertex="1" parent="1">
          <mxGeometry x="930" y="570" width="40" height="160" as="geometry" />
        </mxCell>
        <mxCell id="B3mxXPaatogXchF34-ks-40" value="安&lt;br&gt;全&lt;br&gt;演&lt;br&gt;练&lt;br&gt;工&lt;br&gt;作" style="rounded=0;whiteSpace=wrap;html=1;shadow=0;labelBackgroundColor=none;fontFamily=Verdana;fontSize=14;align=center;verticalAlign=middle;" vertex="1" parent="1">
          <mxGeometry x="990" y="570" width="40" height="160" as="geometry" />
        </mxCell>
        <mxCell id="B3mxXPaatogXchF34-ks-41" value="各&lt;br&gt;类&lt;br&gt;消&lt;br&gt;毒&lt;br&gt;报&lt;br&gt;表&lt;br&gt;工&lt;br&gt;作" style="rounded=0;whiteSpace=wrap;html=1;shadow=0;labelBackgroundColor=none;fontFamily=Verdana;fontSize=14;align=center;verticalAlign=middle;" vertex="1" parent="1">
          <mxGeometry x="1050" y="570" width="40" height="160" as="geometry" />
        </mxCell>
        <mxCell id="B3mxXPaatogXchF34-ks-42" value="一&lt;br&gt;体&lt;br&gt;机&lt;br&gt;的&lt;br&gt;维&lt;br&gt;护&lt;br&gt;工&lt;br&gt;作" style="rounded=0;whiteSpace=wrap;html=1;shadow=0;labelBackgroundColor=none;fontFamily=Verdana;fontSize=14;align=center;verticalAlign=middle;" vertex="1" parent="1">
          <mxGeometry x="1503" y="570" width="40" height="160" as="geometry" />
        </mxCell>
        <mxCell id="B3mxXPaatogXchF34-ks-43" value="继&lt;br&gt;续&lt;br&gt;教&lt;br&gt;育&lt;br&gt;工&lt;br&gt;作" style="rounded=0;whiteSpace=wrap;html=1;shadow=0;labelBackgroundColor=none;fontFamily=Verdana;fontSize=14;align=center;verticalAlign=middle;" vertex="1" parent="1">
          <mxGeometry x="1443" y="570" width="40" height="160" as="geometry" />
        </mxCell>
        <mxCell id="B3mxXPaatogXchF34-ks-44" value="教&lt;br&gt;师&lt;br&gt;远&lt;br&gt;程&lt;br&gt;培&lt;br&gt;训&lt;br&gt;工&lt;br&gt;作" style="rounded=0;whiteSpace=wrap;html=1;shadow=0;labelBackgroundColor=none;fontFamily=Verdana;fontSize=14;align=center;verticalAlign=middle;" vertex="1" parent="1">
          <mxGeometry x="1383" y="570" width="40" height="160" as="geometry" />
        </mxCell>
        <mxCell id="B3mxXPaatogXchF34-ks-45" value="食&lt;br&gt;堂&lt;br&gt;管&lt;br&gt;理&lt;br&gt;工&lt;br&gt;作" style="rounded=0;whiteSpace=wrap;html=1;shadow=0;labelBackgroundColor=none;fontFamily=Verdana;fontSize=14;align=center;verticalAlign=middle;" vertex="1" parent="1">
          <mxGeometry x="1310" y="570" width="40" height="160" as="geometry" />
        </mxCell>
        <mxCell id="B3mxXPaatogXchF34-ks-46" value="物&lt;br&gt;品&lt;br&gt;采&lt;br&gt;买&lt;br&gt;工&lt;br&gt;作" style="rounded=0;whiteSpace=wrap;html=1;shadow=0;labelBackgroundColor=none;fontFamily=Verdana;fontSize=14;align=center;verticalAlign=middle;" vertex="1" parent="1">
          <mxGeometry x="1250" y="570" width="40" height="160" as="geometry" />
        </mxCell>
        <mxCell id="B3mxXPaatogXchF34-ks-47" value="固&lt;br&gt;定&lt;br&gt;资&lt;br&gt;产&lt;br&gt;统&lt;br&gt;计&lt;br&gt;工&lt;br&gt;作" style="rounded=0;whiteSpace=wrap;html=1;shadow=0;labelBackgroundColor=none;fontFamily=Verdana;fontSize=14;align=center;verticalAlign=middle;" vertex="1" parent="1">
          <mxGeometry x="1190" y="570" width="40" height="160" as="geometry" />
        </mxCell>
        <mxCell id="B3mxXPaatogXchF34-ks-48" value="财&lt;br&gt;务&lt;br&gt;管&lt;br&gt;理&lt;br&gt;工&lt;br&gt;作" style="rounded=0;whiteSpace=wrap;html=1;shadow=0;labelBackgroundColor=none;fontFamily=Verdana;fontSize=14;align=center;verticalAlign=middle;" vertex="1" parent="1">
          <mxGeometry x="1130" y="570" width="40" height="160" as="geometry" />
        </mxCell>
        <mxCell id="B3mxXPaatogXchF34-ks-60" style="edgeStyle=orthogonalEdgeStyle;rounded=0;orthogonalLoop=1;jettySize=auto;html=1;entryX=0.5;entryY=0;entryDx=0;entryDy=0;fontFamily=Verdana;fontSize=14;" edge="1" parent="1" target="B3mxXPaatogXchF34-ks-25">
          <mxGeometry relative="1" as="geometry">
            <mxPoint x="290" y="540" as="sourcePoint" />
            <mxPoint x="490" y="570" as="targetPoint" />
            <Array as="points">
              <mxPoint x="290" y="540" />
              <mxPoint x="490" y="540" />
            </Array>
          </mxGeometry>
        </mxCell>
        <mxCell id="B3mxXPaatogXchF34-ks-90" style="edgeStyle=orthogonalEdgeStyle;rounded=0;orthogonalLoop=1;jettySize=auto;html=1;entryX=0.5;entryY=0;entryDx=0;entryDy=0;fontFamily=Verdana;fontSize=14;strokeWidth=1;" edge="1" parent="1" source="B3mxXPaatogXchF34-ks-88" target="B3mxXPaatogXchF34-ks-17">
          <mxGeometry relative="1" as="geometry">
            <Array as="points">
              <mxPoint x="696" y="390" />
              <mxPoint x="290" y="390" />
            </Array>
          </mxGeometry>
        </mxCell>
        <mxCell id="B3mxXPaatogXchF34-ks-91" style="edgeStyle=orthogonalEdgeStyle;rounded=0;orthogonalLoop=1;jettySize=auto;html=1;fontFamily=Verdana;fontSize=14;" edge="1" parent="1" source="B3mxXPaatogXchF34-ks-88" target="B3mxXPaatogXchF34-ks-8">
          <mxGeometry relative="1" as="geometry" />
        </mxCell>
        <mxCell id="B3mxXPaatogXchF34-ks-92" style="edgeStyle=orthogonalEdgeStyle;rounded=0;orthogonalLoop=1;jettySize=auto;html=1;fontFamily=Verdana;fontSize=14;" edge="1" parent="1" source="B3mxXPaatogXchF34-ks-88" target="B3mxXPaatogXchF34-ks-7">
          <mxGeometry relative="1" as="geometry">
            <Array as="points">
              <mxPoint x="696" y="390" />
              <mxPoint x="980" y="390" />
            </Array>
          </mxGeometry>
        </mxCell>
        <mxCell id="B3mxXPaatogXchF34-ks-93" style="edgeStyle=orthogonalEdgeStyle;rounded=0;orthogonalLoop=1;jettySize=auto;html=1;entryX=0.5;entryY=0;entryDx=0;entryDy=0;fontFamily=Verdana;fontSize=14;" edge="1" parent="1" source="B3mxXPaatogXchF34-ks-88" target="B3mxXPaatogXchF34-ks-18">
          <mxGeometry relative="1" as="geometry">
            <Array as="points">
              <mxPoint x="696" y="390" />
              <mxPoint x="1240" y="390" />
            </Array>
          </mxGeometry>
        </mxCell>
        <mxCell id="B3mxXPaatogXchF34-ks-94" style="edgeStyle=orthogonalEdgeStyle;rounded=0;orthogonalLoop=1;jettySize=auto;html=1;fontFamily=Verdana;fontSize=14;" edge="1" parent="1" source="B3mxXPaatogXchF34-ks-88" target="B3mxXPaatogXchF34-ks-19">
          <mxGeometry relative="1" as="geometry">
            <Array as="points">
              <mxPoint x="696" y="390" />
              <mxPoint x="1493" y="390" />
            </Array>
          </mxGeometry>
        </mxCell>
        <mxCell id="B3mxXPaatogXchF34-ks-88" value="副园长" style="rounded=0;whiteSpace=wrap;html=1;" vertex="1" parent="1">
          <mxGeometry x="636" y="280" width="120" height="60" as="geometry" />
        </mxCell>
        <mxCell id="B3mxXPaatogXchF34-ks-98" style="edgeStyle=orthogonalEdgeStyle;rounded=0;orthogonalLoop=1;jettySize=auto;html=1;fontFamily=Verdana;fontSize=14;strokeWidth=1;" edge="1" parent="1" source="B3mxXPaatogXchF34-ks-96">
          <mxGeometry relative="1" as="geometry">
            <mxPoint x="980" y="430" as="targetPoint" />
            <Array as="points">
              <mxPoint x="860" y="390" />
              <mxPoint x="980" y="390" />
            </Array>
          </mxGeometry>
        </mxCell>
        <mxCell id="B3mxXPaatogXchF34-ks-96" value="副园长" style="rounded=0;whiteSpace=wrap;html=1;" vertex="1" parent="1">
          <mxGeometry x="800" y="280" width="120" height="60" as="geometry" />
        </mxCell>
      </root>
    </mxGraphModel>
  </diagram>
</mxfile>
